<mxfile host="app.diagrams.net" modified="2023-11-10T10:57:56.099Z" agent="Mozilla/5.0 (Windows NT 10.0; Win64; x64) AppleWebKit/537.36 (KHTML, like Gecko) Chrome/119.0.0.0 Safari/537.36" etag="TQ9XKDHZpPYhO7RRHSYy" version="22.1.0" type="device">
  <diagram name="Страница — 1" id="6WO-aSrwxOhQBxibaMNb">
    <mxGraphModel dx="2261" dy="790" grid="1" gridSize="10" guides="1" tooltips="1" connect="1" arrows="1" fold="1" page="1" pageScale="1" pageWidth="827" pageHeight="1169" math="0" shadow="0">
      <root>
        <mxCell id="0" />
        <mxCell id="1" parent="0" />
        <mxCell id="sWCNk8pbO3IkmVhWrQu3-1" value="-" style="rounded=0;whiteSpace=wrap;html=1;" parent="1" vertex="1">
          <mxGeometry x="-20" y="50" width="1272.5" height="740" as="geometry" />
        </mxCell>
        <mxCell id="sWCNk8pbO3IkmVhWrQu3-5" value="" style="endArrow=none;html=1;rounded=0;entryX=1.001;entryY=0.114;entryDx=0;entryDy=0;entryPerimeter=0;exitX=0;exitY=0.11;exitDx=0;exitDy=0;exitPerimeter=0;" parent="1" source="sWCNk8pbO3IkmVhWrQu3-1" target="sWCNk8pbO3IkmVhWrQu3-1" edge="1">
          <mxGeometry width="50" height="50" relative="1" as="geometry">
            <mxPoint x="40" y="130.3" as="sourcePoint" />
            <mxPoint x="970" y="130" as="targetPoint" />
          </mxGeometry>
        </mxCell>
        <mxCell id="sWCNk8pbO3IkmVhWrQu3-6" value="USED AT:" style="text;html=1;strokeColor=none;fillColor=none;align=center;verticalAlign=middle;whiteSpace=wrap;rounded=0;" parent="1" vertex="1">
          <mxGeometry y="50" width="60" height="30" as="geometry" />
        </mxCell>
        <mxCell id="sWCNk8pbO3IkmVhWrQu3-7" value="" style="endArrow=none;html=1;rounded=0;" parent="1" edge="1">
          <mxGeometry width="50" height="50" relative="1" as="geometry">
            <mxPoint x="120" y="130" as="sourcePoint" />
            <mxPoint x="120" y="50" as="targetPoint" />
          </mxGeometry>
        </mxCell>
        <mxCell id="sWCNk8pbO3IkmVhWrQu3-8" value="AUTHOR:&amp;nbsp;" style="text;html=1;strokeColor=none;fillColor=none;align=center;verticalAlign=middle;whiteSpace=wrap;rounded=0;" parent="1" vertex="1">
          <mxGeometry x="120" y="50" width="60" height="30" as="geometry" />
        </mxCell>
        <mxCell id="sWCNk8pbO3IkmVhWrQu3-13" value="Василий Книгов" style="text;html=1;strokeColor=none;fillColor=none;align=center;verticalAlign=middle;whiteSpace=wrap;rounded=0;" parent="1" vertex="1">
          <mxGeometry x="160" y="50" width="120" height="30" as="geometry" />
        </mxCell>
        <mxCell id="sWCNk8pbO3IkmVhWrQu3-14" value="&amp;nbsp; &amp;nbsp; &amp;nbsp; &amp;nbsp; &amp;nbsp; &amp;nbsp;PROJECT:" style="text;html=1;strokeColor=none;fillColor=none;align=center;verticalAlign=middle;whiteSpace=wrap;rounded=0;" parent="1" vertex="1">
          <mxGeometry x="120" y="70" width="60" height="30" as="geometry" />
        </mxCell>
        <mxCell id="sWCNk8pbO3IkmVhWrQu3-15" value="Публикация в открытых источниках" style="text;html=1;strokeColor=none;fillColor=none;align=center;verticalAlign=middle;whiteSpace=wrap;rounded=0;" parent="1" vertex="1">
          <mxGeometry x="180" y="80" width="210" height="30" as="geometry" />
        </mxCell>
        <mxCell id="sWCNk8pbO3IkmVhWrQu3-16" value="&amp;nbsp; &amp;nbsp; &amp;nbsp; &amp;nbsp; &amp;nbsp; &amp;nbsp; &amp;nbsp; &amp;nbsp; &amp;nbsp; &amp;nbsp; &amp;nbsp;NOTES:" style="text;html=1;strokeColor=none;fillColor=none;align=center;verticalAlign=middle;whiteSpace=wrap;rounded=0;" parent="1" vertex="1">
          <mxGeometry x="110" y="100" width="60" height="30" as="geometry" />
        </mxCell>
        <mxCell id="sWCNk8pbO3IkmVhWrQu3-17" value="1 2 3 4 5&amp;nbsp; 6 7 8 9 10&amp;nbsp;" style="text;html=1;strokeColor=none;fillColor=none;align=center;verticalAlign=middle;whiteSpace=wrap;rounded=0;" parent="1" vertex="1">
          <mxGeometry x="160" y="110" width="130" height="30" as="geometry" />
        </mxCell>
        <mxCell id="sWCNk8pbO3IkmVhWrQu3-19" value="DATE: 2/18/2019" style="text;html=1;strokeColor=none;fillColor=none;align=center;verticalAlign=middle;whiteSpace=wrap;rounded=0;" parent="1" vertex="1">
          <mxGeometry x="375" y="50" width="115" height="30" as="geometry" />
        </mxCell>
        <mxCell id="sWCNk8pbO3IkmVhWrQu3-20" value="REV: 2/28/2019" style="text;html=1;strokeColor=none;fillColor=none;align=center;verticalAlign=middle;whiteSpace=wrap;rounded=0;" parent="1" vertex="1">
          <mxGeometry x="375" y="80" width="110" height="30" as="geometry" />
        </mxCell>
        <mxCell id="sWCNk8pbO3IkmVhWrQu3-21" value="" style="endArrow=none;html=1;rounded=0;entryX=1;entryY=0;entryDx=0;entryDy=0;" parent="1" edge="1">
          <mxGeometry width="50" height="50" relative="1" as="geometry">
            <mxPoint x="505" y="130" as="sourcePoint" />
            <mxPoint x="505" y="50" as="targetPoint" />
          </mxGeometry>
        </mxCell>
        <mxCell id="sWCNk8pbO3IkmVhWrQu3-22" value="" style="endArrow=none;html=1;rounded=0;" parent="1" edge="1">
          <mxGeometry width="50" height="50" relative="1" as="geometry">
            <mxPoint x="540" y="130" as="sourcePoint" />
            <mxPoint x="540" y="50" as="targetPoint" />
          </mxGeometry>
        </mxCell>
        <mxCell id="sWCNk8pbO3IkmVhWrQu3-23" value="" style="endArrow=none;html=1;rounded=0;entryX=0.833;entryY=0.691;entryDx=0;entryDy=0;entryPerimeter=0;" parent="1" target="sWCNk8pbO3IkmVhWrQu3-36" edge="1">
          <mxGeometry width="50" height="50" relative="1" as="geometry">
            <mxPoint x="505" y="70" as="sourcePoint" />
            <mxPoint x="750" y="70" as="targetPoint" />
          </mxGeometry>
        </mxCell>
        <mxCell id="sWCNk8pbO3IkmVhWrQu3-26" value="" style="endArrow=none;html=1;rounded=0;" parent="1" edge="1">
          <mxGeometry width="50" height="50" relative="1" as="geometry">
            <mxPoint x="505" y="94.5" as="sourcePoint" />
            <mxPoint x="970" y="95" as="targetPoint" />
          </mxGeometry>
        </mxCell>
        <mxCell id="sWCNk8pbO3IkmVhWrQu3-27" value="" style="endArrow=none;html=1;rounded=0;" parent="1" edge="1">
          <mxGeometry width="50" height="50" relative="1" as="geometry">
            <mxPoint x="510" y="116" as="sourcePoint" />
            <mxPoint x="970" y="116" as="targetPoint" />
            <Array as="points" />
          </mxGeometry>
        </mxCell>
        <mxCell id="sWCNk8pbO3IkmVhWrQu3-28" value="" style="endArrow=none;html=1;rounded=0;" parent="1" edge="1">
          <mxGeometry width="50" height="50" relative="1" as="geometry">
            <mxPoint x="750" y="130" as="sourcePoint" />
            <mxPoint x="750" y="50" as="targetPoint" />
          </mxGeometry>
        </mxCell>
        <mxCell id="sWCNk8pbO3IkmVhWrQu3-29" value="WORKING" style="text;html=1;strokeColor=none;fillColor=none;align=center;verticalAlign=middle;whiteSpace=wrap;rounded=0;" parent="1" vertex="1">
          <mxGeometry x="550" y="50" width="60" height="30" as="geometry" />
        </mxCell>
        <mxCell id="sWCNk8pbO3IkmVhWrQu3-30" value="DRAFT" style="text;html=1;strokeColor=none;fillColor=none;align=center;verticalAlign=middle;whiteSpace=wrap;rounded=0;" parent="1" vertex="1">
          <mxGeometry x="540" y="70" width="60" height="30" as="geometry" />
        </mxCell>
        <mxCell id="sWCNk8pbO3IkmVhWrQu3-32" value="RECOMMENDED" style="text;html=1;strokeColor=none;fillColor=none;align=center;verticalAlign=middle;whiteSpace=wrap;rounded=0;" parent="1" vertex="1">
          <mxGeometry x="570" y="90" width="60" height="30" as="geometry" />
        </mxCell>
        <mxCell id="sWCNk8pbO3IkmVhWrQu3-33" value="PUBLICATION" style="text;html=1;strokeColor=none;fillColor=none;align=center;verticalAlign=middle;whiteSpace=wrap;rounded=0;" parent="1" vertex="1">
          <mxGeometry x="560" y="110" width="60" height="30" as="geometry" />
        </mxCell>
        <mxCell id="sWCNk8pbO3IkmVhWrQu3-35" value="&amp;nbsp; READER" style="text;html=1;strokeColor=none;fillColor=none;align=center;verticalAlign=middle;whiteSpace=wrap;rounded=0;" parent="1" vertex="1">
          <mxGeometry x="750" y="50" width="60" height="30" as="geometry" />
        </mxCell>
        <mxCell id="sWCNk8pbO3IkmVhWrQu3-36" value="DATE" style="text;html=1;strokeColor=none;fillColor=none;align=center;verticalAlign=middle;whiteSpace=wrap;rounded=0;" parent="1" vertex="1">
          <mxGeometry x="920" y="50" width="60" height="30" as="geometry" />
        </mxCell>
        <mxCell id="sWCNk8pbO3IkmVhWrQu3-39" value="" style="endArrow=none;html=1;rounded=0;" parent="1" edge="1">
          <mxGeometry width="50" height="50" relative="1" as="geometry">
            <mxPoint x="973" y="130" as="sourcePoint" />
            <mxPoint x="973" y="50" as="targetPoint" />
          </mxGeometry>
        </mxCell>
        <mxCell id="sWCNk8pbO3IkmVhWrQu3-40" value="CONTEXT" style="text;html=1;strokeColor=none;fillColor=none;align=center;verticalAlign=middle;whiteSpace=wrap;rounded=0;" parent="1" vertex="1">
          <mxGeometry x="980" y="50" width="60" height="30" as="geometry" />
        </mxCell>
        <mxCell id="sWCNk8pbO3IkmVhWrQu3-41" value="&amp;nbsp;A-0" style="text;html=1;strokeColor=none;fillColor=none;align=center;verticalAlign=middle;whiteSpace=wrap;rounded=0;" parent="1" vertex="1">
          <mxGeometry x="960" y="110" width="60" height="30" as="geometry" />
        </mxCell>
        <mxCell id="sWCNk8pbO3IkmVhWrQu3-43" value="" style="rounded=0;whiteSpace=wrap;html=1;fillColor=#000000;" parent="1" vertex="1">
          <mxGeometry x="506" y="50" width="34" height="20" as="geometry" />
        </mxCell>
        <mxCell id="sWCNk8pbO3IkmVhWrQu3-44" value="" style="rounded=0;whiteSpace=wrap;html=1;fillColor=#000000;" parent="1" vertex="1">
          <mxGeometry x="1050" y="75" width="90" height="40" as="geometry" />
        </mxCell>
        <mxCell id="sWCNk8pbO3IkmVhWrQu3-45" value="" style="endArrow=none;html=1;rounded=0;entryX=1.001;entryY=0.904;entryDx=0;entryDy=0;entryPerimeter=0;exitX=0.001;exitY=0.901;exitDx=0;exitDy=0;exitPerimeter=0;" parent="1" source="sWCNk8pbO3IkmVhWrQu3-1" target="sWCNk8pbO3IkmVhWrQu3-1" edge="1">
          <mxGeometry width="50" height="50" relative="1" as="geometry">
            <mxPoint x="150" y="870" as="sourcePoint" />
            <mxPoint x="200" y="820" as="targetPoint" />
          </mxGeometry>
        </mxCell>
        <mxCell id="sWCNk8pbO3IkmVhWrQu3-47" value="" style="endArrow=none;html=1;rounded=0;" parent="1" edge="1">
          <mxGeometry width="50" height="50" relative="1" as="geometry">
            <mxPoint x="150" y="790" as="sourcePoint" />
            <mxPoint x="150" y="720" as="targetPoint" />
          </mxGeometry>
        </mxCell>
        <mxCell id="sWCNk8pbO3IkmVhWrQu3-48" value="NODE:" style="text;html=1;strokeColor=none;fillColor=none;align=center;verticalAlign=middle;whiteSpace=wrap;rounded=0;" parent="1" vertex="1">
          <mxGeometry x="-30" y="710" width="60" height="30" as="geometry" />
        </mxCell>
        <mxCell id="sWCNk8pbO3IkmVhWrQu3-49" value="&lt;b&gt;A0&lt;/b&gt;" style="text;html=1;strokeColor=none;fillColor=none;align=center;verticalAlign=middle;whiteSpace=wrap;rounded=0;" parent="1" vertex="1">
          <mxGeometry y="760" width="60" height="30" as="geometry" />
        </mxCell>
        <mxCell id="sWCNk8pbO3IkmVhWrQu3-50" value="" style="endArrow=none;html=1;rounded=0;" parent="1" edge="1">
          <mxGeometry width="50" height="50" relative="1" as="geometry">
            <mxPoint x="890" y="790" as="sourcePoint" />
            <mxPoint x="890" y="720" as="targetPoint" />
          </mxGeometry>
        </mxCell>
        <mxCell id="sWCNk8pbO3IkmVhWrQu3-51" value="TITLE:" style="text;html=1;strokeColor=none;fillColor=none;align=center;verticalAlign=middle;whiteSpace=wrap;rounded=0;" parent="1" vertex="1">
          <mxGeometry x="140" y="710" width="60" height="30" as="geometry" />
        </mxCell>
        <mxCell id="sWCNk8pbO3IkmVhWrQu3-52" value="&lt;b&gt;НАПИСАТЬ СТАТЬЮ&lt;/b&gt;" style="text;html=1;strokeColor=none;fillColor=none;align=center;verticalAlign=middle;whiteSpace=wrap;rounded=0;" parent="1" vertex="1">
          <mxGeometry x="414" y="720" width="145" height="30" as="geometry" />
        </mxCell>
        <mxCell id="sWCNk8pbO3IkmVhWrQu3-53" value="NUMBER:" style="text;html=1;strokeColor=none;fillColor=none;align=center;verticalAlign=middle;whiteSpace=wrap;rounded=0;" parent="1" vertex="1">
          <mxGeometry x="890" y="710" width="60" height="30" as="geometry" />
        </mxCell>
        <mxCell id="sWCNk8pbO3IkmVhWrQu3-55" value="" style="rounded=0;whiteSpace=wrap;html=1;" parent="1" vertex="1">
          <mxGeometry x="1162.5" y="770" width="90" height="20" as="geometry" />
        </mxCell>
        <mxCell id="sWCNk8pbO3IkmVhWrQu3-56" value="" style="rounded=0;whiteSpace=wrap;html=1;" parent="1" vertex="1">
          <mxGeometry x="130" y="210" width="130" height="70" as="geometry" />
        </mxCell>
        <mxCell id="sWCNk8pbO3IkmVhWrQu3-59" value="оформление абонемента" style="text;html=1;strokeColor=none;fillColor=none;align=center;verticalAlign=middle;whiteSpace=wrap;rounded=0;" parent="1" vertex="1">
          <mxGeometry x="140" y="220" width="110" height="30" as="geometry" />
        </mxCell>
        <mxCell id="sWCNk8pbO3IkmVhWrQu3-60" value="$ O" style="text;html=1;strokeColor=none;fillColor=none;align=center;verticalAlign=middle;whiteSpace=wrap;rounded=0;" parent="1" vertex="1">
          <mxGeometry x="120" y="250" width="60" height="30" as="geometry" />
        </mxCell>
        <mxCell id="sWCNk8pbO3IkmVhWrQu3-61" value="1" style="text;html=1;strokeColor=none;fillColor=none;align=center;verticalAlign=middle;whiteSpace=wrap;rounded=0;" parent="1" vertex="1">
          <mxGeometry x="220" y="250" width="60" height="30" as="geometry" />
        </mxCell>
        <mxCell id="sWCNk8pbO3IkmVhWrQu3-64" value="" style="rounded=0;whiteSpace=wrap;html=1;" parent="1" vertex="1">
          <mxGeometry x="410" y="320" width="130" height="70" as="geometry" />
        </mxCell>
        <mxCell id="sWCNk8pbO3IkmVhWrQu3-67" value="Поиск книги" style="text;html=1;strokeColor=none;fillColor=none;align=center;verticalAlign=middle;whiteSpace=wrap;rounded=0;" parent="1" vertex="1">
          <mxGeometry x="425" y="320" width="100" height="20" as="geometry" />
        </mxCell>
        <mxCell id="sWCNk8pbO3IkmVhWrQu3-68" value="$0" style="text;html=1;strokeColor=none;fillColor=none;align=center;verticalAlign=middle;whiteSpace=wrap;rounded=0;" parent="1" vertex="1">
          <mxGeometry x="390" y="370" width="60" height="30" as="geometry" />
        </mxCell>
        <mxCell id="sWCNk8pbO3IkmVhWrQu3-69" value="2" style="text;html=1;strokeColor=none;fillColor=none;align=center;verticalAlign=middle;whiteSpace=wrap;rounded=0;" parent="1" vertex="1">
          <mxGeometry x="500" y="370" width="60" height="30" as="geometry" />
        </mxCell>
        <mxCell id="sWCNk8pbO3IkmVhWrQu3-70" value="" style="rounded=0;whiteSpace=wrap;html=1;" parent="1" vertex="1">
          <mxGeometry x="715" y="470" width="130" height="70" as="geometry" />
        </mxCell>
        <mxCell id="sWCNk8pbO3IkmVhWrQu3-71" value="Запись книги на абонемент" style="text;html=1;strokeColor=none;fillColor=none;align=center;verticalAlign=middle;whiteSpace=wrap;rounded=0;" parent="1" vertex="1">
          <mxGeometry x="717" y="470" width="110" height="30" as="geometry" />
        </mxCell>
        <mxCell id="sWCNk8pbO3IkmVhWrQu3-75" value="$0" style="text;html=1;strokeColor=none;fillColor=none;align=center;verticalAlign=middle;whiteSpace=wrap;rounded=0;" parent="1" vertex="1">
          <mxGeometry x="700" y="520" width="60" height="30" as="geometry" />
        </mxCell>
        <mxCell id="sWCNk8pbO3IkmVhWrQu3-76" value="&amp;nbsp; &amp;nbsp; &amp;nbsp;3" style="text;html=1;strokeColor=none;fillColor=none;align=center;verticalAlign=middle;whiteSpace=wrap;rounded=0;" parent="1" vertex="1">
          <mxGeometry x="800" y="520" width="60" height="30" as="geometry" />
        </mxCell>
        <mxCell id="sWCNk8pbO3IkmVhWrQu3-77" value="" style="rounded=0;whiteSpace=wrap;html=1;" parent="1" vertex="1">
          <mxGeometry x="960" y="580" width="130" height="70" as="geometry" />
        </mxCell>
        <mxCell id="sWCNk8pbO3IkmVhWrQu3-78" value="Выдача книги" style="text;html=1;strokeColor=none;fillColor=none;align=center;verticalAlign=middle;whiteSpace=wrap;rounded=0;" parent="1" vertex="1">
          <mxGeometry x="960" y="580" width="130" height="35" as="geometry" />
        </mxCell>
        <mxCell id="sWCNk8pbO3IkmVhWrQu3-79" value="$0" style="text;html=1;strokeColor=none;fillColor=none;align=center;verticalAlign=middle;whiteSpace=wrap;rounded=0;" parent="1" vertex="1">
          <mxGeometry x="940" y="630" width="60" height="30" as="geometry" />
        </mxCell>
        <mxCell id="sWCNk8pbO3IkmVhWrQu3-80" value="4" style="text;html=1;strokeColor=none;fillColor=none;align=center;verticalAlign=middle;whiteSpace=wrap;rounded=0;" parent="1" vertex="1">
          <mxGeometry x="1055" y="630" width="60" height="30" as="geometry" />
        </mxCell>
        <mxCell id="sWCNk8pbO3IkmVhWrQu3-81" value="" style="endArrow=classic;html=1;rounded=0;entryX=0;entryY=0.25;entryDx=0;entryDy=0;" parent="1" edge="1">
          <mxGeometry width="50" height="50" relative="1" as="geometry">
            <mxPoint x="30" y="219.32" as="sourcePoint" />
            <mxPoint x="130" y="218.82" as="targetPoint" />
          </mxGeometry>
        </mxCell>
        <mxCell id="sWCNk8pbO3IkmVhWrQu3-82" value="I1" style="text;html=1;strokeColor=none;fillColor=none;align=center;verticalAlign=middle;whiteSpace=wrap;rounded=0;" parent="1" vertex="1">
          <mxGeometry x="-10" y="190" width="40" height="30" as="geometry" />
        </mxCell>
        <mxCell id="sWCNk8pbO3IkmVhWrQu3-83" value="" style="endArrow=classic;html=1;rounded=0;entryX=0;entryY=0.25;entryDx=0;entryDy=0;" parent="1" edge="1">
          <mxGeometry width="50" height="50" relative="1" as="geometry">
            <mxPoint x="30" y="230.25" as="sourcePoint" />
            <mxPoint x="130" y="230" as="targetPoint" />
          </mxGeometry>
        </mxCell>
        <mxCell id="sWCNk8pbO3IkmVhWrQu3-86" value="I2" style="text;html=1;strokeColor=none;fillColor=none;align=center;verticalAlign=middle;whiteSpace=wrap;rounded=0;" parent="1" vertex="1">
          <mxGeometry x="-20" y="230" width="60" height="30" as="geometry" />
        </mxCell>
        <mxCell id="sWCNk8pbO3IkmVhWrQu3-87" value="&amp;nbsp;Оформление заявки&amp;nbsp;" style="text;html=1;strokeColor=none;fillColor=none;align=center;verticalAlign=middle;whiteSpace=wrap;rounded=0;" parent="1" vertex="1">
          <mxGeometry x="10" y="190" width="120" height="30" as="geometry" />
        </mxCell>
        <mxCell id="sWCNk8pbO3IkmVhWrQu3-91" value="План публикаций" style="text;html=1;strokeColor=none;fillColor=none;align=center;verticalAlign=middle;whiteSpace=wrap;rounded=0;" parent="1" vertex="1">
          <mxGeometry x="30" y="140" width="100" height="30" as="geometry" />
        </mxCell>
        <mxCell id="sWCNk8pbO3IkmVhWrQu3-92" value="" style="endArrow=classic;html=1;rounded=0;entryX=0.154;entryY=0.008;entryDx=0;entryDy=0;entryPerimeter=0;" parent="1" edge="1">
          <mxGeometry width="50" height="50" relative="1" as="geometry">
            <mxPoint x="130" y="150" as="sourcePoint" />
            <mxPoint x="130.01999999999998" y="210.55999999999995" as="targetPoint" />
          </mxGeometry>
        </mxCell>
        <mxCell id="sWCNk8pbO3IkmVhWrQu3-93" value="" style="endArrow=classic;html=1;rounded=0;entryX=0.154;entryY=0.008;entryDx=0;entryDy=0;entryPerimeter=0;" parent="1" edge="1">
          <mxGeometry width="50" height="50" relative="1" as="geometry">
            <mxPoint x="195" y="150" as="sourcePoint" />
            <mxPoint x="194.5" y="210" as="targetPoint" />
          </mxGeometry>
        </mxCell>
        <mxCell id="sWCNk8pbO3IkmVhWrQu3-94" value="история выдачи" style="text;html=1;strokeColor=none;fillColor=none;align=center;verticalAlign=middle;whiteSpace=wrap;rounded=0;" parent="1" vertex="1">
          <mxGeometry x="195" y="180" width="60" height="30" as="geometry" />
        </mxCell>
        <mxCell id="sWCNk8pbO3IkmVhWrQu3-97" value="С3" style="text;html=1;strokeColor=none;fillColor=none;align=center;verticalAlign=middle;whiteSpace=wrap;rounded=0;" parent="1" vertex="1">
          <mxGeometry x="110" y="130" width="60" height="30" as="geometry" />
        </mxCell>
        <mxCell id="sWCNk8pbO3IkmVhWrQu3-98" value="&lt;blockquote style=&quot;margin: 0 0 0 40px; border: none; padding: 0px;&quot;&gt;С2&lt;/blockquote&gt;" style="text;html=1;strokeColor=none;fillColor=none;align=center;verticalAlign=middle;whiteSpace=wrap;rounded=0;" parent="1" vertex="1">
          <mxGeometry x="140" y="130" width="60" height="30" as="geometry" />
        </mxCell>
        <mxCell id="sWCNk8pbO3IkmVhWrQu3-99" value="" style="endArrow=classic;html=1;rounded=0;entryX=0.356;entryY=1.028;entryDx=0;entryDy=0;entryPerimeter=0;exitX=0.985;exitY=0.062;exitDx=0;exitDy=0;exitPerimeter=0;" parent="1" target="sWCNk8pbO3IkmVhWrQu3-60" edge="1" source="aSY_hGSoixOe-V6Y5yrn-42">
          <mxGeometry width="50" height="50" relative="1" as="geometry">
            <mxPoint x="141" y="700" as="sourcePoint" />
            <mxPoint x="150" y="280" as="targetPoint" />
          </mxGeometry>
        </mxCell>
        <mxCell id="sWCNk8pbO3IkmVhWrQu3-101" value="" style="endArrow=classic;html=1;rounded=0;entryX=0.633;entryY=-0.22;entryDx=0;entryDy=0;entryPerimeter=0;" parent="1" target="sWCNk8pbO3IkmVhWrQu3-67" edge="1">
          <mxGeometry width="50" height="50" relative="1" as="geometry">
            <mxPoint x="485" y="160" as="sourcePoint" />
            <mxPoint x="535" y="210" as="targetPoint" />
          </mxGeometry>
        </mxCell>
        <mxCell id="sWCNk8pbO3IkmVhWrQu3-103" value="C1" style="text;html=1;strokeColor=none;fillColor=none;align=center;verticalAlign=middle;whiteSpace=wrap;rounded=0;" parent="1" vertex="1">
          <mxGeometry x="456.5" y="140" width="60" height="30" as="geometry" />
        </mxCell>
        <mxCell id="sWCNk8pbO3IkmVhWrQu3-104" value="" style="endArrow=classic;html=1;rounded=0;entryX=1;entryY=0;entryDx=0;entryDy=0;" parent="1" target="sWCNk8pbO3IkmVhWrQu3-56" edge="1">
          <mxGeometry width="50" height="50" relative="1" as="geometry">
            <mxPoint x="260" y="150" as="sourcePoint" />
            <mxPoint x="340.8600000000001" y="210" as="targetPoint" />
          </mxGeometry>
        </mxCell>
        <mxCell id="sWCNk8pbO3IkmVhWrQu3-107" value="C4" style="text;html=1;strokeColor=none;fillColor=none;align=center;verticalAlign=middle;whiteSpace=wrap;rounded=0;" parent="1" vertex="1">
          <mxGeometry x="230" y="130" width="60" height="30" as="geometry" />
        </mxCell>
        <mxCell id="sWCNk8pbO3IkmVhWrQu3-111" value="" style="endArrow=classic;html=1;rounded=0;exitX=0.986;exitY=0.428;exitDx=0;exitDy=0;exitPerimeter=0;entryX=0;entryY=0.5;entryDx=0;entryDy=0;edgeStyle=orthogonalEdgeStyle;curved=1;" parent="1" source="sWCNk8pbO3IkmVhWrQu3-56" target="sWCNk8pbO3IkmVhWrQu3-64" edge="1">
          <mxGeometry width="50" height="50" relative="1" as="geometry">
            <mxPoint x="360" y="280" as="sourcePoint" />
            <mxPoint x="410" y="230" as="targetPoint" />
          </mxGeometry>
        </mxCell>
        <mxCell id="aSY_hGSoixOe-V6Y5yrn-2" value="" style="endArrow=classic;html=1;rounded=0;entryX=0.25;entryY=0;entryDx=0;entryDy=0;" edge="1" parent="1" target="sWCNk8pbO3IkmVhWrQu3-78">
          <mxGeometry width="50" height="50" relative="1" as="geometry">
            <mxPoint x="260" y="170" as="sourcePoint" />
            <mxPoint x="992.5" y="560" as="targetPoint" />
            <Array as="points">
              <mxPoint x="993" y="170" />
            </Array>
          </mxGeometry>
        </mxCell>
        <mxCell id="aSY_hGSoixOe-V6Y5yrn-3" value="" style="endArrow=classic;html=1;rounded=0;entryX=0;entryY=0;entryDx=0;entryDy=0;" edge="1" parent="1" target="sWCNk8pbO3IkmVhWrQu3-67">
          <mxGeometry width="50" height="50" relative="1" as="geometry">
            <mxPoint x="260" y="190" as="sourcePoint" />
            <mxPoint x="310" y="140" as="targetPoint" />
            <Array as="points">
              <mxPoint x="425" y="190" />
            </Array>
          </mxGeometry>
        </mxCell>
        <mxCell id="aSY_hGSoixOe-V6Y5yrn-6" value="" style="endArrow=classic;html=1;rounded=0;entryX=0.015;entryY=0.6;entryDx=0;entryDy=0;entryPerimeter=0;" edge="1" parent="1" target="sWCNk8pbO3IkmVhWrQu3-70">
          <mxGeometry width="50" height="50" relative="1" as="geometry">
            <mxPoint x="540" y="360" as="sourcePoint" />
            <mxPoint x="590" y="310" as="targetPoint" />
            <Array as="points">
              <mxPoint x="660" y="360" />
              <mxPoint x="660" y="512" />
            </Array>
          </mxGeometry>
        </mxCell>
        <mxCell id="aSY_hGSoixOe-V6Y5yrn-8" value="" style="endArrow=classic;html=1;rounded=0;entryX=0.409;entryY=0;entryDx=0;entryDy=0;entryPerimeter=0;" edge="1" parent="1" target="sWCNk8pbO3IkmVhWrQu3-71">
          <mxGeometry width="50" height="50" relative="1" as="geometry">
            <mxPoint x="490" y="250" as="sourcePoint" />
            <mxPoint x="540" y="200" as="targetPoint" />
            <Array as="points">
              <mxPoint x="760" y="250" />
            </Array>
          </mxGeometry>
        </mxCell>
        <mxCell id="aSY_hGSoixOe-V6Y5yrn-9" value="Орфография" style="text;html=1;strokeColor=none;fillColor=none;align=center;verticalAlign=middle;whiteSpace=wrap;rounded=0;" vertex="1" parent="1">
          <mxGeometry x="493" y="220" width="60" height="30" as="geometry" />
        </mxCell>
        <mxCell id="aSY_hGSoixOe-V6Y5yrn-15" value="" style="endArrow=classic;html=1;rounded=0;entryX=0;entryY=0.643;entryDx=0;entryDy=0;entryPerimeter=0;" edge="1" parent="1" target="sWCNk8pbO3IkmVhWrQu3-77">
          <mxGeometry width="50" height="50" relative="1" as="geometry">
            <mxPoint x="845" y="510" as="sourcePoint" />
            <mxPoint x="895" y="460" as="targetPoint" />
            <Array as="points">
              <mxPoint x="920" y="510" />
            </Array>
          </mxGeometry>
        </mxCell>
        <mxCell id="aSY_hGSoixOe-V6Y5yrn-16" value="нормативные требования&amp;nbsp;" style="text;html=1;strokeColor=none;fillColor=none;align=center;verticalAlign=middle;whiteSpace=wrap;rounded=0;" vertex="1" parent="1">
          <mxGeometry x="680" y="150" width="170" height="30" as="geometry" />
        </mxCell>
        <mxCell id="aSY_hGSoixOe-V6Y5yrn-17" value="" style="endArrow=classic;html=1;rounded=0;" edge="1" parent="1">
          <mxGeometry width="50" height="50" relative="1" as="geometry">
            <mxPoint x="1090" y="615" as="sourcePoint" />
            <mxPoint x="1210" y="615.5" as="targetPoint" />
          </mxGeometry>
        </mxCell>
        <mxCell id="aSY_hGSoixOe-V6Y5yrn-18" value="Публикации в издании" style="text;html=1;strokeColor=none;fillColor=none;align=center;verticalAlign=middle;whiteSpace=wrap;rounded=0;" vertex="1" parent="1">
          <mxGeometry x="1090" y="590" width="120" height="30" as="geometry" />
        </mxCell>
        <mxCell id="aSY_hGSoixOe-V6Y5yrn-19" value="O1" style="text;html=1;strokeColor=none;fillColor=none;align=center;verticalAlign=middle;whiteSpace=wrap;rounded=0;" vertex="1" parent="1">
          <mxGeometry x="1190" y="600" width="60" height="30" as="geometry" />
        </mxCell>
        <mxCell id="aSY_hGSoixOe-V6Y5yrn-27" value="" style="endArrow=classic;html=1;rounded=0;entryX=0.5;entryY=1;entryDx=0;entryDy=0;" edge="1" parent="1" target="sWCNk8pbO3IkmVhWrQu3-68">
          <mxGeometry width="50" height="50" relative="1" as="geometry">
            <mxPoint x="250" y="510" as="sourcePoint" />
            <mxPoint x="190" y="470" as="targetPoint" />
            <Array as="points">
              <mxPoint x="420" y="510" />
            </Array>
          </mxGeometry>
        </mxCell>
        <mxCell id="aSY_hGSoixOe-V6Y5yrn-35" value="требования к по" style="text;html=1;strokeColor=none;fillColor=none;align=center;verticalAlign=middle;whiteSpace=wrap;rounded=0;" vertex="1" parent="1">
          <mxGeometry x="130" y="180" width="60" height="30" as="geometry" />
        </mxCell>
        <mxCell id="aSY_hGSoixOe-V6Y5yrn-36" value="нормативные требования" style="text;html=1;strokeColor=none;fillColor=none;align=center;verticalAlign=middle;whiteSpace=wrap;rounded=0;" vertex="1" parent="1">
          <mxGeometry x="280" y="140" width="60" height="30" as="geometry" />
        </mxCell>
        <mxCell id="aSY_hGSoixOe-V6Y5yrn-37" value="Библиотекарь" style="text;html=1;strokeColor=none;fillColor=none;align=center;verticalAlign=middle;whiteSpace=wrap;rounded=0;" vertex="1" parent="1">
          <mxGeometry x="250" y="670" width="60" height="30" as="geometry" />
        </mxCell>
        <mxCell id="aSY_hGSoixOe-V6Y5yrn-38" value="ПО" style="text;html=1;strokeColor=none;fillColor=none;align=center;verticalAlign=middle;whiteSpace=wrap;rounded=0;" vertex="1" parent="1">
          <mxGeometry x="150" y="680" width="60" height="30" as="geometry" />
        </mxCell>
        <mxCell id="aSY_hGSoixOe-V6Y5yrn-39" value="" style="endArrow=classic;html=1;rounded=0;entryX=0.5;entryY=1;entryDx=0;entryDy=0;" edge="1" parent="1" target="sWCNk8pbO3IkmVhWrQu3-64">
          <mxGeometry width="50" height="50" relative="1" as="geometry">
            <mxPoint x="200" y="550" as="sourcePoint" />
            <mxPoint x="235" y="660" as="targetPoint" />
            <Array as="points">
              <mxPoint x="340" y="550" />
              <mxPoint x="420" y="550" />
              <mxPoint x="475" y="550" />
            </Array>
          </mxGeometry>
        </mxCell>
        <mxCell id="aSY_hGSoixOe-V6Y5yrn-40" value="" style="endArrow=classic;html=1;rounded=0;entryX=0.5;entryY=1;entryDx=0;entryDy=0;exitX=-0.008;exitY=0.133;exitDx=0;exitDy=0;exitPerimeter=0;" edge="1" parent="1" source="aSY_hGSoixOe-V6Y5yrn-37" target="sWCNk8pbO3IkmVhWrQu3-61">
          <mxGeometry width="50" height="50" relative="1" as="geometry">
            <mxPoint x="270" y="680" as="sourcePoint" />
            <mxPoint x="320" y="670" as="targetPoint" />
          </mxGeometry>
        </mxCell>
        <mxCell id="aSY_hGSoixOe-V6Y5yrn-42" value="Оборудование" style="text;html=1;strokeColor=none;fillColor=none;align=center;verticalAlign=middle;whiteSpace=wrap;rounded=0;" vertex="1" parent="1">
          <mxGeometry x="80" y="670" width="60" height="30" as="geometry" />
        </mxCell>
        <mxCell id="aSY_hGSoixOe-V6Y5yrn-44" value="Паспортные данные" style="text;html=1;strokeColor=none;fillColor=none;align=center;verticalAlign=middle;whiteSpace=wrap;rounded=0;" vertex="1" parent="1">
          <mxGeometry x="-10" y="210" width="40" height="30" as="geometry" />
        </mxCell>
        <mxCell id="aSY_hGSoixOe-V6Y5yrn-47" value="" style="endArrow=classic;html=1;rounded=0;entryX=0;entryY=0.25;entryDx=0;entryDy=0;" edge="1" parent="1">
          <mxGeometry width="50" height="50" relative="1" as="geometry">
            <mxPoint x="40" y="249.07" as="sourcePoint" />
            <mxPoint x="140" y="248.82" as="targetPoint" />
          </mxGeometry>
        </mxCell>
        <mxCell id="aSY_hGSoixOe-V6Y5yrn-60" value="Читатель" style="edgeLabel;html=1;align=center;verticalAlign=middle;resizable=0;points=[];" vertex="1" connectable="0" parent="aSY_hGSoixOe-V6Y5yrn-47">
          <mxGeometry x="0.0477" y="1" relative="1" as="geometry">
            <mxPoint x="-42" y="17" as="offset" />
          </mxGeometry>
        </mxCell>
        <mxCell id="aSY_hGSoixOe-V6Y5yrn-51" value="абонемент" style="text;html=1;strokeColor=none;fillColor=none;align=center;verticalAlign=middle;whiteSpace=wrap;rounded=0;" vertex="1" parent="1">
          <mxGeometry x="330" y="250" width="60" height="30" as="geometry" />
        </mxCell>
        <mxCell id="aSY_hGSoixOe-V6Y5yrn-52" value="книга" style="text;html=1;strokeColor=none;fillColor=none;align=center;verticalAlign=middle;whiteSpace=wrap;rounded=0;" vertex="1" parent="1">
          <mxGeometry x="660" y="390" width="60" height="30" as="geometry" />
        </mxCell>
        <mxCell id="aSY_hGSoixOe-V6Y5yrn-53" value="Запись на выдачу" style="text;html=1;strokeColor=none;fillColor=none;align=center;verticalAlign=middle;whiteSpace=wrap;rounded=0;" vertex="1" parent="1">
          <mxGeometry x="860" y="510" width="60" height="30" as="geometry" />
        </mxCell>
        <mxCell id="aSY_hGSoixOe-V6Y5yrn-54" value="" style="endArrow=classic;html=1;rounded=0;entryX=0.5;entryY=1;entryDx=0;entryDy=0;" edge="1" parent="1" target="sWCNk8pbO3IkmVhWrQu3-70">
          <mxGeometry width="50" height="50" relative="1" as="geometry">
            <mxPoint x="250" y="580" as="sourcePoint" />
            <mxPoint x="300" y="530" as="targetPoint" />
            <Array as="points">
              <mxPoint x="780" y="580" />
            </Array>
          </mxGeometry>
        </mxCell>
        <mxCell id="aSY_hGSoixOe-V6Y5yrn-55" value="" style="endArrow=classic;html=1;rounded=0;entryX=1.117;entryY=0.667;entryDx=0;entryDy=0;entryPerimeter=0;" edge="1" parent="1" target="sWCNk8pbO3IkmVhWrQu3-79">
          <mxGeometry width="50" height="50" relative="1" as="geometry">
            <mxPoint x="250" y="670" as="sourcePoint" />
            <mxPoint x="300" y="565" as="targetPoint" />
            <Array as="points">
              <mxPoint x="1010" y="670" />
            </Array>
          </mxGeometry>
        </mxCell>
        <mxCell id="aSY_hGSoixOe-V6Y5yrn-57" value="ПО" style="text;html=1;strokeColor=none;fillColor=none;align=center;verticalAlign=middle;whiteSpace=wrap;rounded=0;" vertex="1" parent="1">
          <mxGeometry x="559" y="330" width="60" height="30" as="geometry" />
        </mxCell>
        <mxCell id="aSY_hGSoixOe-V6Y5yrn-59" value="" style="endArrow=classic;html=1;rounded=0;entryX=0.5;entryY=1;entryDx=0;entryDy=0;exitX=0.75;exitY=0;exitDx=0;exitDy=0;" edge="1" parent="1" source="aSY_hGSoixOe-V6Y5yrn-38" target="sWCNk8pbO3IkmVhWrQu3-56">
          <mxGeometry width="50" height="50" relative="1" as="geometry">
            <mxPoint x="170" y="380" as="sourcePoint" />
            <mxPoint x="220" y="330" as="targetPoint" />
          </mxGeometry>
        </mxCell>
      </root>
    </mxGraphModel>
  </diagram>
</mxfile>
